<!DOCTYPE svg PUBLIC "-//W3C//DTD SVG 1.1//EN" "http://www.w3.org/Graphics/SVG/1.1/DTD/svg11.dtd">
<!-- Uploaded to: SVG Repo, www.svgrepo.com, Transformed by: SVG Repo Mixer Tools -->
<svg fill="#5c92ff" width="256px" height="256px" viewBox="0 0 24.00 24.00" xmlns="http://www.w3.org/2000/svg" stroke="#5c92ff" stroke-width="1.056">
<g id="SVGRepo_bgCarrier" stroke-width="0" transform="translate(0,0), scale(1)"/>
<g id="SVGRepo_tracerCarrier" stroke-linecap="round" stroke-linejoin="round" stroke="#CCCCCC" stroke-width="0.144"/>
<g id="SVGRepo_iconCarrier"> <g id="Chat_1" data-name="Chat 1"> <path d="M3.316,19.937A1.251,1.251,0,0,1,2.065,18.69l0-1.716L2.068,6.56a2.5,2.5,0,0,1,2.5-2.5H19.44a2.5,2.5,0,0,1,2.5,2.5v8.41a2.5,2.5,0,0,1-2.5,2.5H6.918a1.49,1.49,0,0,0-1.06.439L4.2,19.57A1.246,1.246,0,0,1,3.316,19.937ZM4.568,5.062a1.5,1.5,0,0,0-1.5,1.5L3.06,16.973l0,1.714a.25.25,0,0,0,.427.176L5.151,17.2a2.482,2.482,0,0,1,1.767-.732H19.44a1.5,1.5,0,0,0,1.5-1.5V6.562a1.5,1.5,0,0,0-1.5-1.5Z"/> </g> </g>
</svg>